<svg version="1.1" xmlns="http://www.w3.org/2000/svg" style="display: block;" viewBox="0 0 2048 2048" width="20" height="20" preserveAspectRatio="none">
  <!-- Dark background for contrast -->
  <path transform="translate(0,0)" fill="#1A1A1A" d="M 0 0 L 2048 0 L 2048 2048 L 0 2048 L 0 0 z"/>

  <!-- Main structure - light gray for base -->
  <path transform="translate(0,0)" fill="#4A4A4A" d="M 1019.44 1213.41 C 1006.42 1167.84 996.945 1146.43 991.336 1097.66 C 978.543 986.451 1007.19 874.21 1077.85 786.284 C 1146.34 701.99 1245.35 648.152 1353.33 636.483 C 1469.62 623.17 1586.43 656.662 1677.99 729.572 C 1768.96 802.236 1827.4 908.02 1840.47 1023.72 C 1852.61 1139.19 1826.4 1249.05 1752.13 1339.58 C 1684.09 1422.53 1584.74 1473.58 1478.59 1484.5 C 1378.84 1494.9 1278.6 1470.11 1195.2 1414.41 C 1180.58 1404.68 1167.53 1393.91 1153.92 1382.85 C 1104.93 1412 1055.06 1444.58 1006.37 1474.68 L 737.967 1641.77 C 706.121 1662.03 678.62 1668.68 641.833 1659.41 C 590.767 1639.36 556.457 1588.81 565.25 1533.51 C 572.015 1490.97 604.361 1473 636.895 1452.34 L 707.607 1408.03 L 909.085 1282.46 C 943.028 1261.39 987.224 1236.26 1019.44 1213.41 z"/>
  <path transform="translate(0,0)" fill="#4A4A4A" d="M 1173 1298.62 C 1063.97 1208.37 1009.43 1044.21 1055.12 908.455 C 1120.44 714.369 1338.53 628.289 1527.01 688.874 C 1628.1 721.736 1712 793.398 1760.27 888.105 C 1806.29 977.927 1811.71 1073.97 1780.92 1169.21 C 1786.25 1179 1778.86 1210.67 1775.77 1221.43 C 1754.9 1294.06 1696.71 1353.5 1630.95 1388.67 C 1533.27 1441.68 1418.45 1453.44 1312.05 1421.31 C 1260.48 1405.5 1195.09 1373.55 1167.27 1325.27 C 1161.16 1314.68 1162.82 1305.45 1173 1298.62 z"/>
  <path transform="translate(0,0)" fill="#4A4A4A" d="M 1780.92 1169.21 C 1786.25 1179 1778.86 1210.67 1775.77 1221.43 C 1754.9 1294.06 1696.71 1353.5 1630.95 1388.67 C 1533.27 1441.68 1418.45 1453.44 1312.05 1421.31 C 1260.48 1405.5 1195.09 1373.55 1167.27 1325.27 C 1161.16 1314.68 1162.82 1305.45 1173 1298.62 C 1216.64 1333.1 1244.47 1351.63 1296.88 1371.82 C 1394.55 1408.37 1502.63 1405.3 1598.07 1363.27 C 1685.85 1324.3 1746.57 1258.38 1780.92 1169.21 z"/>

  <!-- Core brain structure - medium gray -->
  <path transform="translate(0,0)" fill="#6B6B6B" d="M 1375.95 773.21 C 1403.2 748.36 1429.26 744.264 1461.24 763.27 C 1481.27 779.723 1489.79 800.566 1502.53 822.855 L 1554.4 913.693 L 1630.72 1047.6 C 1644.96 1072.62 1659.28 1097.42 1672.92 1122.87 C 1684.87 1145.14 1684.93 1169.05 1668.59 1189.32 C 1659.27 1200.9 1642.02 1209.57 1627.17 1210.38 C 1599.11 1211.05 1570.23 1210.71 1542.03 1210.7 L 1384.13 1210.73 L 1275.32 1210.63 C 1244.43 1210.62 1207.24 1216.43 1182.9 1194.77 C 1171.73 1184.9 1165.05 1170.92 1164.36 1156.03 C 1163.96 1147.53 1165.73 1137.73 1169.55 1130.18 C 1179.52 1110.53 1191.2 1090.87 1202.13 1071.69 C 1223.65 1033.61 1245.39 995.659 1267.32 957.823 L 1336.22 837.866 C 1345.95 821.016 1364.46 786.632 1375.95 773.21 z"/>
  <path transform="translate(0,0)" fill="#6B6B6B" d="M 1290.44 1179.6 C 1274.67 1179.73 1258.91 1179.82 1243.12 1179.85 C 1228.56 1179.88 1212.57 1177.86 1204.18 1164.24 C 1191.06 1142.97 1210.62 1121.08 1220.95 1102.74 C 1243 1063.62 1265.36 1024.67 1288.04 985.91 L 1345.44 885.713 C 1359.72 860.332 1373.81 834.532 1389.27 809.827 C 1394.59 801.94 1399.53 793.271 1408.43 788.837 C 1442.37 771.923 1457.9 809.679 1471.73 832.661 C 1479.16 845.004 1485.85 856.966 1492.3 869.309 C 1524.16 920.648 1556.71 981.805 1586.94 1034.92 L 1623.73 1099.05 C 1635.61 1120.1 1661.2 1155.18 1630.91 1173.69 C 1617.05 1182.16 1595.22 1179.83 1578.99 1179.81 L 1512.66 1179.74 L 1290.44 1179.6 z"/>

  <!-- Detection/warning nodes - accent in yellow for visibility -->
  <path transform="translate(0,0)" fill="#FFB800" d="M 975.69 1280.78 C 982.474 1287.54 989.378 1298.91 994.805 1307.15 C 1006.11 1324.07 1019.9 1346.61 1031.44 1362.63 L 1032.67 1364.35 C 1039.27 1374.27 1051.4 1391.42 1056.72 1401.33 L 839.136 1536.89 C 810.003 1555.7 780.66 1574.18 751.113 1592.33 C 722.75 1609.97 693.821 1634.24 658.541 1625.68 C 652.759 1624.28 643.928 1621.25 639.152 1617.75 C 626.651 1609.47 615.896 1598.52 609.742 1584.69 C 593.421 1560.64 599.389 1518.66 621.661 1500.94 C 637.824 1488.07 661.169 1474.98 679.225 1463.75 L 785.035 1397.81 L 905.956 1322.67 C 925.682 1310.41 955.816 1290.54 975.69 1280.78 z"/>
  <path transform="translate(0,0)" fill="#FFB800" d="M 1031.44 1362.63 L 1032.67 1364.35 C 1039.27 1374.27 1051.4 1391.42 1056.72 1401.33 L 839.136 1536.89 C 810.003 1555.7 780.66 1574.18 751.113 1592.33 C 722.75 1609.97 693.821 1634.24 658.541 1625.68 C 652.759 1624.28 643.928 1621.25 639.152 1617.75 C 626.651 1609.47 615.896 1598.52 609.742 1584.69 C 618.343 1588.09 624.221 1590.4 633.081 1592.77 L 634.499 1592.86 C 669.457 1596.45 689.802 1579.95 717.703 1561.73 C 730.735 1553.22 744.342 1544.83 757.466 1536.34 L 882.576 1456.37 C 903.096 1443.36 930.346 1425.09 951.097 1413.46 C 977.683 1396.28 1005.18 1380.12 1031.44 1362.63 z"/>

  <!-- Supporting structures - medium grays -->
  <path transform="translate(0,0)" fill="#5A5A5A" d="M 1006.95 1265.37 C 1012.48 1252.74 1039.13 1238.86 1051.97 1231.52 C 1062.81 1248.71 1074.09 1265.61 1085.8 1282.22 C 1091.29 1290.16 1102.46 1305.49 1106.44 1313.4 C 1115.49 1326.21 1124.65 1338.98 1132.83 1352.36 C 1126.74 1356.41 1121.06 1360.22 1114.71 1363.88 C 1104.12 1369.94 1092.31 1377.72 1081.46 1384.16 C 1074.49 1377.19 1060.31 1355.16 1054.01 1345.79 C 1042.99 1331.12 1029.07 1309.27 1018.9 1293.76 C 1010.41 1282.45 1006.48 1279.33 1006.95 1265.37 z"/>
  <path transform="translate(0,0)" fill="#5A5A5A" d="M 1106.44 1313.4 C 1115.49 1326.21 1124.65 1338.98 1132.83 1352.36 C 1126.74 1356.41 1121.06 1360.22 1114.71 1363.88 C 1104.12 1369.94 1092.31 1377.72 1081.46 1384.16 C 1074.49 1377.19 1060.31 1355.16 1054.01 1345.79 L 1057.76 1346.21 C 1059.67 1343.91 1063.49 1341.94 1066.19 1340.32 L 1077.8 1332.63 C 1081.4 1330.19 1083.94 1328 1088.15 1327.08 L 1087.74 1325.7 C 1093.24 1323.1 1101.19 1317.11 1106.44 1313.4 z"/>
  <path transform="translate(0,0)" fill="#5A5A5A" d="M 1106.44 1313.4 C 1115.49 1326.21 1124.65 1338.98 1132.83 1352.36 C 1126.74 1356.41 1121.06 1360.22 1114.71 1363.88 C 1105.74 1352.72 1096.49 1338.95 1088.15 1327.08 L 1087.74 1325.7 C 1093.24 1323.1 1101.19 1317.11 1106.44 1313.4 z"/>

  <!-- Left detail elements - darker gray -->
  <path transform="translate(0,0)" fill="#3A3A3A" d="M 1362.08 880.561 C 1363.44 881.181 1365.1 882.299 1366.08 883.467 C 1367.5 885.149 1368.28 886.802 1367.91 888.988 C 1365.69 902.209 1284.58 1039.38 1271.45 1062.31 C 1261.27 1080.1 1252.13 1098.75 1241.18 1116.06 C 1238.92 1119.62 1236.57 1122.2 1233.19 1124.7 C 1231.3 1123.42 1229.7 1122.08 1228.29 1120.28 C 1226 1117.38 1225.4 1113.96 1226.01 1110.35 C 1228.58 1095.06 1334.1 916.307 1350.82 892.405 C 1354.14 887.664 1357.27 883.893 1362.08 880.561 z"/>
  <path transform="translate(0,0)" fill="#3A3A3A" d="M 1435.72 821.209 C 1447.4 820.316 1455.64 821.056 1463.22 831.12 C 1472.97 844.067 1474.04 861.843 1452.74 859.529 C 1445.35 858.438 1430.11 856.614 1424.25 853.018 C 1403.22 840.112 1420.49 825.574 1435.72 821.209 z"/>

  <!-- More detail - alternating dark/light grays for depth -->
  <path transform="translate(0,0)" fill="#5A5A5A" d="M 1290.44 1179.6 C 1274.67 1179.73 1258.91 1179.82 1243.12 1179.85 C 1228.56 1179.88 1212.57 1177.86 1204.18 1164.24 C 1191.06 1142.97 1210.62 1121.08 1220.95 1102.74 C 1243 1063.62 1265.36 1024.67 1288.04 985.91 L 1345.44 885.713 C 1359.72 860.332 1373.81 834.532 1389.27 809.827 C 1394.59 801.94 1399.53 793.271 1408.43 788.837 C 1442.37 771.923 1457.9 809.679 1471.73 832.661 C 1479.16 845.004 1485.85 856.966 1492.3 869.309 C 1484.92 879.421 1464.46 914.578 1456.75 920.256 C 1455.07 935.342 1444.57 1045.74 1440.26 1052.26 C 1433.61 1057.02 1425.2 1055.95 1417.27 1054.9 C 1409.28 1049.96 1407.82 1015.38 1406.68 1005.01 C 1399.67 1010.64 1304.68 1161.98 1297.13 1178.17 C 1294.67 1178.8 1292.94 1179.17 1290.44 1179.6 z"/>
  <path transform="translate(0,0)" fill="#5A5A5A" d="M 1406.68 1005.01 C 1402.23 971.09 1398.27 935.717 1395.01 901.606 C 1394.79 895.321 1394.22 887.693 1399.17 882.857 C 1410.58 871.703 1444.68 872.965 1455.29 884.139 C 1461.39 890.563 1457.44 911.153 1456.75 920.256 C 1455.07 935.342 1444.57 1045.74 1440.26 1052.26 C 1433.61 1057.02 1425.2 1055.95 1417.27 1054.9 C 1409.28 1049.96 1407.82 1015.38 1406.68 1005.01 z"/>

  <!-- Small detail paths - lighter gray for contrast -->
  <path transform="translate(0,0)" fill="#8A8A8A" d="M 609.742 1584.69 C 618.343 1588.09 624.221 1590.4 633.081 1592.77 L 634.499 1592.86 C 635.354 1597.34 639.217 1614.57 639.152 1617.75 C 626.651 1609.47 615.896 1598.52 609.742 1584.69 z"/>
  <path transform="translate(0,0)" fill="#8A8A8A" d="M 1031.44 1362.63 L 1032.67 1364.35 C 1022.91 1370.33 957.385 1413.51 951.097 1413.46 C 977.683 1396.28 1005.18 1380.12 1031.44 1362.63 z"/>
  <path transform="translate(0,0)" fill="#8A8A8A" d="M 975.69 1280.78 C 982.474 1287.54 989.378 1298.91 994.805 1307.15 C 981.95 1317.73 947.241 1336.75 930.765 1346.84 L 756.904 1452.06 C 742.831 1460.57 728.999 1469.19 715.084 1477.94 C 702.573 1485.81 687.284 1493.1 675.794 1502.16 C 677.902 1516.32 679.62 1520.55 666.862 1528.96 C 660.382 1529.08 653.901 1529.13 647.42 1529.1 C 631.717 1545.18 633.646 1558.95 633.392 1580.01 C 633.355 1583.14 633.764 1590.21 633.081 1592.77 C 624.221 1590.4 618.343 1588.09 609.742 1584.69 C 593.421 1560.64 599.389 1518.66 621.661 1500.94 C 637.824 1488.07 661.169 1474.98 679.225 1463.75 L 785.035 1397.81 L 905.956 1322.67 C 925.682 1310.41 955.816 1290.54 975.69 1280.78 z"/>

  <!-- Larger structures - medium-dark -->
  <path transform="translate(0,0)" fill="#2D2D2D" d="M 651.688 330.407 C 680.71 325.692 719.825 334.516 745.53 348.935 C 796.361 377.449 792.927 396.141 792.989 448.492 L 793.028 533.959 L 792.961 891.489 L 793.021 1124.87 L 793.073 1200.5 C 793.072 1205.71 792.675 1213.12 793.061 1218.05 C 797.439 1273.91 765.737 1327.37 709.702 1341.16 C 700.641 1343.39 690.321 1345.29 680.628 1347.52 C 675.101 1353.26 669.685 1358.81 663.857 1364.25 C 634.035 1392.09 586.481 1399.34 549.327 1383.47 C 525.845 1373.35 506.789 1355.12 495.645 1332.1 C 491.553 1323.49 488.21 1313.09 484.61 1303.98 C 460.139 1294.6 451.625 1298.25 423.896 1283.1 C 381.742 1258.99 366.792 1226.97 361.84 1180.37 C 354.616 1178.62 347.652 1176.88 340.527 1174.79 C 277.435 1156.3 248.091 1097.51 267.573 1035.89 C 263.408 1032.95 259.322 1029.83 255.192 1026.88 C 204.14 990.434 191.089 918.552 225.183 866.128 C 231.079 857.061 237.4 850.397 245.075 842.558 C 206.465 782.567 215.564 699.586 274.485 656.486 C 263.77 600.832 281.68 553.292 330.034 521.577 C 348.201 509.662 362.405 506.066 383.006 500.584 C 383.761 495.502 384.575 490.429 385.448 485.366 C 391.645 452.433 410.528 423.251 438.031 404.106 C 470.62 381.576 505.973 377.271 544.134 384.107 C 576.617 351.114 605.456 335.009 651.688 330.407 z"/>

  <!-- Additional accent in cyan for AI feel -->
  <path transform="translate(0,0)" fill="#00A896" d="M 529.002 880.679 C 537.41 882.609 543.472 890.324 551.013 894.116 C 559.279 898.272 569.752 897.281 577.54 902.548 C 589.364 910.546 649.133 985.323 659.776 1000.16 C 642.595 1013.21 621.053 1024.88 603.017 1037.1 C 588.827 1046.71 588.578 1055.23 585.708 1071.25 C 582.577 1098.67 552.958 1089.64 535.382 1083.37 C 528.216 1080.82 521.798 1078.65 515.356 1074.54 C 509.735 1064.36 505.569 1049.82 502.684 1038.71 C 520.533 1025.24 536.484 1011.82 533.117 986.16 C 530.615 967.091 515.624 956.322 501.162 946.084 C 500.336 930.172 500.329 914.227 501.141 898.314 C 508.602 891.712 520.108 885.663 529.002 880.679 z"/>
  <path transform="translate(0,0)" fill="#00A896" d="M 758.423 624.963 L 759.896 626.01 C 761.27 636.461 760.807 653.265 760.787 664.275 L 760.688 727.445 L 761.005 934.059 C 752.276 941.581 720.775 960.435 709.728 967.377 L 709.35 924.5 L 709.419 832.595 C 709.505 816.302 712 772.651 704.761 760.025 C 694.195 741.595 674.157 718.707 662.471 698.736 C 672.518 683.351 674.24 678.13 673.707 659.599 C 693.85 649.055 735.983 633.706 758.423 624.963 z"/>

  <!-- More elements in muted tones -->
  <path transform="translate(0,0)" fill="#5A5A5A" d="M 433.203 783.866 C 436.959 785.362 443.274 788.986 446.555 791.482 C 467.691 807.561 492.75 819.963 512.21 837.863 C 514.534 840 516.865 850.566 517.719 853.971 C 504.922 864.726 488.655 871.064 476.003 881.958 C 472.128 885.573 471.994 891.91 472.008 896.736 C 472.056 913.404 472.2 930.051 471.756 946.705 C 466.169 950.087 460.665 953.604 455.25 957.254 C 445.136 967.283 439.797 977.459 423.22 975.384 C 412.243 974.01 401.26 972.43 390.276 971.183 C 388.082 950.458 388.827 923.56 388.048 902.235 C 387.457 886.077 386.781 861.349 388.243 845.74 C 389.173 835.819 399.887 806.044 404.993 797.437 C 416.714 792.952 422.453 790.344 433.203 783.866 z"/>
  <path transform="translate(0,0)" fill="#5A5A5A" d="M 630.431 711.162 C 642.228 716.071 672.267 762.23 677.903 775.448 C 679.851 780.015 679.053 824.627 679.048 832.85 C 679.408 880.536 679.051 928.226 677.978 975.902 C 670.389 967.907 662.367 957.612 655.289 948.978 C 644.344 936.1 611.304 898.112 604.451 885.056 C 608.303 876.604 611.089 869.942 612.653 860.73 C 616.917 835.633 597.49 824.44 585.153 806.778 C 590.925 783.829 607.714 742.659 618.22 720.42 C 620.888 714.771 624.593 712.55 630.431 711.162 z"/>

  <!-- More cyan accents -->
  <path transform="translate(0,0)" fill="#00A896" d="M 685.969 1015.35 C 688.56 1019.98 687.552 1106.8 686.755 1117.74 C 680.858 1127.87 671.309 1131.06 663.881 1140.35 C 657.06 1148.88 654.114 1162.49 655.47 1173.12 C 657.003 1184.63 663.3 1194.96 672.825 1201.6 C 683.225 1208.92 696.119 1211.77 708.636 1209.53 C 720.846 1207.28 731.603 1200.13 738.404 1189.74 C 748.516 1174.07 745.656 1161.23 742.349 1144.55 C 749.486 1140.65 753.193 1140.06 760.959 1138.48 C 761.539 1168.3 760.914 1198.29 761.234 1228.13 C 761.316 1235.77 761.057 1243.48 759.662 1251.01 C 757.753 1260.77 754.114 1270.11 748.916 1278.59 C 723.239 1320.59 657.854 1328.92 622.582 1294.36 C 614.278 1286.23 603.354 1267.05 589.576 1271.37 C 586.081 1272.48 583.247 1275.06 581.824 1278.44 C 577.351 1289.02 590.52 1301.55 596.845 1308.71 C 609.195 1322.7 624.732 1332.31 641.913 1339.25 C 598.088 1378.09 530.713 1357.43 519.15 1298.23 C 518.943 1295.51 518.716 1290.58 518.183 1287.98 C 513.438 1264.86 493.722 1271.84 477.062 1268.64 C 460.813 1265.52 445.811 1260.26 432.766 1250.56 C 409.154 1233 397.696 1212.98 393.044 1184.47 C 405.244 1183.7 424.449 1185.4 436.802 1186.36 C 444.982 1193.91 466.804 1225.06 474.478 1225.12 C 515.42 1225.44 469.251 1180.99 463.374 1171.24 C 469.454 1161.5 482.231 1149.12 489.704 1139.34 C 497.706 1128.88 505.479 1115.64 513.94 1106.18 C 547.703 1109.05 555.254 1118.34 578.277 1138.77 C 579.589 1146.05 582.83 1169.24 580.34 1175.53 C 575.258 1188.35 567.051 1196.34 575.443 1212.35 C 578.985 1219.04 585.163 1223.94 592.483 1225.88 C 599.849 1227.86 607.706 1226.76 614.244 1222.83 C 620.63 1218.89 625.089 1212.47 626.548 1205.11 C 629.962 1187.77 618.894 1181.14 610.611 1170.2 C 607.185 1165.67 603.348 1141.8 605.325 1135.78 C 606.824 1130.2 612.412 1121.37 612.206 1115.68 C 611.512 1096.57 610.238 1082.08 615.61 1062.93 C 623.428 1055.47 639.33 1045.96 648.859 1039.57 C 660.486 1031.78 674.02 1022.23 685.969 1015.35 z"/>

  <!-- Pink accent -->
  <path transform="translate(0,0)" fill="#D53F8C" d="M 694.678 1146.56 C 701.614 1144.67 709.032 1146.66 714.08 1151.78 C 719.129 1156.9 721.021 1164.35 719.03 1171.25 C 717.038 1178.16 711.473 1183.46 704.474 1185.1 C 693.918 1187.59 683.319 1181.15 680.648 1170.64 C 677.976 1160.13 684.218 1149.42 694.678 1146.56 z"/>

  <!-- Emerald accents -->
  <path transform="translate(0,0)" fill="#38B2AC" d="M 493.617 538.488 C 501.387 536.983 509.367 539.77 514.51 545.786 C 519.653 551.802 521.166 560.118 518.471 567.56 C 515.776 575.002 509.289 580.421 501.486 581.748 C 489.612 583.768 478.323 575.859 476.167 564.008 C 474.012 552.158 481.792 540.779 493.617 538.488 z"/>
  <path transform="translate(0,0)" fill="#38B2AC" d="M 619.339 645.375 C 631.088 642.265 643.129 649.282 646.216 661.037 C 649.302 672.791 642.261 684.819 630.5 687.882 C 618.773 690.936 606.786 683.919 603.708 672.198 C 600.63 660.476 607.624 648.476 619.339 645.375 z"/>
  <path transform="translate(0,0)" fill="#38B2AC" d="M 560.55 830.562 C 572.115 827.612 583.888 834.57 586.881 846.124 C 589.874 857.679 582.959 869.478 571.415 872.513 C 559.812 875.564 547.938 868.605 544.93 856.99 C 541.921 845.375 548.924 833.527 560.55 830.562 z"/>
  <path transform="translate(0,0)" fill="#38B2AC" d="M 668.849 476.104 C 676.553 474.973 684.27 478.081 689.039 484.237 C 693.808 490.393 694.89 498.642 691.87 505.819 C 688.849 512.997 682.195 517.99 674.459 518.884 C 662.751 520.236 652.124 511.942 650.591 500.256 C 649.059 488.57 657.188 477.817 668.849 476.104 z"/>
  <path transform="translate(0,0)" fill="#38B2AC" d="M 480.52 972.612 C 492.06 969.519 503.915 976.398 506.956 987.952 C 509.996 999.506 503.064 1011.33 491.496 1014.32 C 480.003 1017.29 468.271 1010.41 465.249 998.929 C 462.228 987.448 469.054 975.685 480.52 972.612 z"/>

  <!-- Final accent elements -->
  <path transform="translate(0,0)" fill="#E53E3E" d="M 871.591 876.579 L 875.938 876.891 C 877.162 882.258 880.1 899.676 881.51 902.736 L 874.86 902.92 C 875.222 894.312 873.423 884.976 871.591 876.579 z"/>
  <path transform="translate(0,0)" fill="#E53E3E" d="M 896.786 875.254 C 905.231 855.735 907.981 839.493 932.367 830.332 C 944.499 825.73 957.996 826.356 969.649 832.063 C 980.474 837.275 986.456 844.325 991.595 854.846 C 983.065 875.699 977.705 893.66 970.101 913.063 C 939.718 932.182 930.215 917.385 903.375 905.201 C 900.259 903.787 885.76 903.036 881.51 902.736 C 880.1 899.676 877.162 882.258 875.938 876.891 C 884.045 876.67 888.811 876.422 896.786 875.254 z"/>
  <path transform="translate(0,0)" fill="#E53E3E" d="M 943.441 853.561 C 955.084 851.493 966.224 859.175 968.428 870.793 C 970.633 882.41 963.082 893.64 951.491 895.98 C 943.871 897.519 936.012 894.843 930.916 888.973 C 925.819 883.104 924.271 874.947 926.863 867.619 C 929.455 860.29 935.787 854.921 943.441 853.561 z"/>
</svg>
