<svg version="1.1" xmlns="http://www.w3.org/2000/svg" style="display: block;" viewBox="0 0 2048 2048" width="16" height="16" preserveAspectRatio="none">
<path transform="translate(0,0)" fill="#6C707E" d="M 1019.44 1213.41 C 1006.42 1167.84 996.945 1146.43 991.336 1097.66 C 978.543 986.451 1007.19 874.21 1077.85 786.284 C 1146.34 701.99 1245.35 648.152 1353.33 636.483 C 1469.62 623.17 1586.43 656.662 1677.99 729.572 C 1768.96 802.236 1827.4 908.02 1840.47 1023.72 C 1852.61 1139.19 1826.4 1249.05 1752.13 1339.58 C 1684.09 1422.53 1584.74 1473.58 1478.59 1484.5 C 1378.84 1494.9 1278.6 1470.11 1195.2 1414.41 C 1180.58 1404.68 1167.53 1393.91 1153.92 1382.85 C 1104.93 1412 1055.06 1444.58 1006.37 1474.68 L 737.967 1641.77 C 706.121 1662.03 678.62 1668.68 641.833 1659.41 C 590.767 1639.36 556.457 1588.81 565.25 1533.51 C 572.015 1490.97 604.361 1473 636.895 1452.34 L 707.607 1408.03 L 909.085 1282.46 C 943.028 1261.39 987.224 1236.26 1019.44 1213.41 z"/>
<path transform="translate(0,0)" fill="#6C707E" d="M 1173 1298.62 C 1063.97 1208.37 1009.43 1044.21 1055.12 908.455 C 1120.44 714.369 1338.53 628.289 1527.01 688.874 C 1628.1 721.736 1712 793.398 1760.27 888.105 C 1806.29 977.927 1811.71 1073.97 1780.92 1169.21 C 1786.25 1179 1778.86 1210.67 1775.77 1221.43 C 1754.9 1294.06 1696.71 1353.5 1630.95 1388.67 C 1533.27 1441.68 1418.45 1453.44 1312.05 1421.31 C 1260.48 1405.5 1195.09 1373.55 1167.27 1325.27 C 1161.16 1314.68 1162.82 1305.45 1173 1298.62 z"/>
<path transform="translate(0,0)" fill="#6C707E" d="M 1780.92 1169.21 C 1786.25 1179 1778.86 1210.67 1775.77 1221.43 C 1754.9 1294.06 1696.71 1353.5 1630.95 1388.67 C 1533.27 1441.68 1418.45 1453.44 1312.05 1421.31 C 1260.48 1405.5 1195.09 1373.55 1167.27 1325.27 C 1161.16 1314.68 1162.82 1305.45 1173 1298.62 C 1216.64 1333.1 1244.47 1351.63 1296.88 1371.82 C 1394.55 1408.37 1502.63 1405.3 1598.07 1363.27 C 1685.85 1324.3 1746.57 1258.38 1780.92 1169.21 z"/>
<path transform="translate(0,0)" fill="#6C707E" d="M 1375.95 773.21 C 1403.2 748.36 1429.26 744.264 1461.24 763.27 C 1481.27 779.723 1489.79 800.566 1502.53 822.855 L 1554.4 913.693 L 1630.72 1047.6 C 1644.96 1072.62 1659.28 1097.42 1672.92 1122.87 C 1684.87 1145.14 1684.93 1169.05 1668.59 1189.32 C 1659.27 1200.9 1642.02 1209.57 1627.17 1210.38 C 1599.11 1211.05 1570.23 1210.71 1542.03 1210.7 L 1384.13 1210.73 L 1275.32 1210.63 C 1244.43 1210.62 1207.24 1216.43 1182.9 1194.77 C 1171.73 1184.9 1165.05 1170.92 1164.36 1156.03 C 1163.96 1147.53 1165.73 1137.73 1169.55 1130.18 C 1179.52 1110.53 1191.2 1090.87 1202.13 1071.69 C 1223.65 1033.61 1245.39 995.659 1267.32 957.823 L 1336.22 837.866 C 1345.95 821.016 1364.46 786.632 1375.95 773.21 z"/>
<path transform="translate(0,0)" fill="#6C707E" d="M 1290.44 1179.6 C 1274.67 1179.73 1258.91 1179.82 1243.12 1179.85 C 1228.56 1179.88 1212.57 1177.86 1204.18 1164.24 C 1191.06 1142.97 1210.62 1121.08 1220.95 1102.74 C 1243 1063.62 1265.36 1024.67 1288.04 985.91 L 1345.44 885.713 C 1359.72 860.332 1373.81 834.532 1389.27 809.827 C 1394.59 801.94 1399.53 793.271 1408.43 788.837 C 1442.37 771.923 1457.9 809.679 1471.73 832.661 C 1479.16 845.004 1485.85 856.966 1492.3 869.309 C 1524.16 920.648 1556.71 981.805 1586.94 1034.92 L 1623.73 1099.05 C 1635.61 1120.1 1661.2 1155.18 1630.91 1173.69 C 1617.05 1182.16 1595.22 1179.83 1578.99 1179.81 L 1512.66 1179.74 L 1290.44 1179.6 z"/>
<path transform="translate(0,0)" fill="#6C707E" d="M 1290.44 1179.6 C 1274.67 1179.73 1258.91 1179.82 1243.12 1179.85 C 1228.56 1179.88 1212.57 1177.86 1204.18 1164.24 C 1191.06 1142.97 1210.62 1121.08 1220.95 1102.74 C 1243 1063.62 1265.36 1024.67 1288.04 985.91 L 1345.44 885.713 C 1359.72 860.332 1373.81 834.532 1389.27 809.827 C 1394.59 801.94 1399.53 793.271 1408.43 788.837 C 1442.37 771.923 1457.9 809.679 1471.73 832.661 C 1479.16 845.004 1485.85 856.966 1492.3 869.309 C 1484.92 879.421 1464.46 914.578 1456.75 920.256 C 1455.07 935.342 1444.57 1045.74 1440.26 1052.26 C 1433.61 1057.02 1425.2 1055.95 1417.27 1054.9 C 1409.28 1049.96 1407.82 1015.38 1406.68 1005.01 C 1399.67 1010.64 1304.68 1161.98 1297.13 1178.17 C 1294.67 1178.8 1292.94 1179.17 1290.44 1179.6 z"/>
<path transform="translate(0,0)" fill="#6C707E" d="M 1406.68 1005.01 C 1402.23 971.09 1398.27 935.717 1395.01 901.606 C 1394.79 895.321 1394.22 887.693 1399.17 882.857 C 1410.58 871.703 1444.68 872.965 1455.29 884.139 C 1461.39 890.563 1457.44 911.153 1456.75 920.256 C 1455.07 935.342 1444.57 1045.74 1440.26 1052.26 C 1433.61 1057.02 1425.2 1055.95 1417.27 1054.9 C 1409.28 1049.96 1407.82 1015.38 1406.68 1005.01 z"/>
<path transform="translate(0,0)" fill="#6C707E" d="M 1362.08 880.561 C 1363.44 881.181 1365.1 882.299 1366.08 883.467 C 1367.5 885.149 1368.28 886.802 1367.91 888.988 C 1365.69 902.209 1284.58 1039.38 1271.45 1062.31 C 1261.27 1080.1 1252.13 1098.75 1241.18 1116.06 C 1238.92 1119.62 1236.57 1122.2 1233.19 1124.7 C 1231.3 1123.42 1229.7 1122.08 1228.29 1120.28 C 1226 1117.38 1225.4 1113.96 1226.01 1110.35 C 1228.58 1095.06 1334.1 916.307 1350.82 892.405 C 1354.14 887.664 1357.27 883.893 1362.08 880.561 z"/>
<path transform="translate(0,0)" fill="#6C707E" d="M 1435.72 821.209 C 1447.4 820.316 1455.64 821.056 1463.22 831.12 C 1472.97 844.067 1474.04 861.843 1452.74 859.529 C 1445.35 858.438 1430.11 856.614 1424.25 853.018 C 1403.22 840.112 1420.49 825.574 1435.72 821.209 z"/>
<path transform="translate(0,0)" fill="#6C707E" d="M 1420.17 1078.37 C 1427.72 1076.41 1435.76 1078.1 1441.88 1082.93 C 1448.01 1087.76 1451.52 1095.19 1451.36 1102.99 C 1451.14 1114.19 1443.47 1123.87 1432.62 1126.65 C 1419.3 1130.05 1405.74 1122.03 1402.31 1108.72 C 1398.87 1095.41 1406.86 1081.83 1420.17 1078.37 z"/>
<path transform="translate(0,0)" fill="#6C707E" d="M 1375.95 773.21 C 1365.92 773.084 1337.59 783.328 1326.76 787.084 C 1202.77 830.072 1099.33 943.383 1096.95 1078.94 C 1096.53 1103.02 1098.87 1125.25 1102.71 1149.07 L 1101.98 1149.17 C 1097.99 1144.25 1093.17 1128.07 1090.78 1121.58 C 1033.08 964.758 1107.64 799.201 1259.85 731.79 C 1412.54 664.165 1602.88 711.379 1698.82 850.554 C 1688.88 843.894 1677.12 834.053 1666.67 826.74 C 1646.39 812.836 1624.83 800.907 1602.27 791.117 C 1564.97 774.896 1524.85 766.406 1484.46 763.68 C 1479.43 763.34 1465.29 761.683 1461.24 763.27 C 1429.26 744.264 1403.2 748.36 1375.95 773.21 z"/>
<path transform="translate(0,0)" fill="#6C707E" d="M 1762.46 1096.71 C 1766.96 1114.65 1746.99 1167.06 1738.68 1185.07 C 1705.75 1256.4 1640.2 1314.14 1567.13 1341.56 C 1469.66 1378.13 1375.22 1372.05 1281.21 1329.91 L 1255.95 1317.89 C 1287.01 1324.53 1317.5 1331.46 1349.16 1334.85 C 1430.02 1343.15 1511.57 1328.47 1584.46 1292.52 C 1664.56 1252.64 1733.78 1182.52 1762.46 1096.71 z"/>
<path transform="translate(0,0)" fill="#6C707E" d="M 975.69 1280.78 C 982.474 1287.54 989.378 1298.91 994.805 1307.15 C 1006.11 1324.07 1019.9 1346.61 1031.44 1362.63 L 1032.67 1364.35 C 1039.27 1374.27 1051.4 1391.42 1056.72 1401.33 L 839.136 1536.89 C 810.003 1555.7 780.66 1574.18 751.113 1592.33 C 722.75 1609.97 693.821 1634.24 658.541 1625.68 C 652.759 1624.28 643.928 1621.25 639.152 1617.75 C 626.651 1609.47 615.896 1598.52 609.742 1584.69 C 593.421 1560.64 599.389 1518.66 621.661 1500.94 C 637.824 1488.07 661.169 1474.98 679.225 1463.75 L 785.035 1397.81 L 905.956 1322.67 C 925.682 1310.41 955.816 1290.54 975.69 1280.78 z"/>
<path transform="translate(0,0)" fill="#6C707E" d="M 1031.44 1362.63 L 1032.67 1364.35 C 1039.27 1374.27 1051.4 1391.42 1056.72 1401.33 L 839.136 1536.89 C 810.003 1555.7 780.66 1574.18 751.113 1592.33 C 722.75 1609.97 693.821 1634.24 658.541 1625.68 C 652.759 1624.28 643.928 1621.25 639.152 1617.75 C 626.651 1609.47 615.896 1598.52 609.742 1584.69 C 618.343 1588.09 624.221 1590.4 633.081 1592.77 L 634.499 1592.86 C 669.457 1596.45 689.802 1579.95 717.703 1561.73 C 730.735 1553.22 744.342 1544.83 757.466 1536.34 L 882.576 1456.37 C 903.096 1443.36 930.346 1425.09 951.097 1413.46 C 977.683 1396.28 1005.18 1380.12 1031.44 1362.63 z"/>
<path transform="translate(0,0)" fill="#6C707E" d="M 609.742 1584.69 C 618.343 1588.09 624.221 1590.4 633.081 1592.77 L 634.499 1592.86 C 635.354 1597.34 639.217 1614.57 639.152 1617.75 C 626.651 1609.47 615.896 1598.52 609.742 1584.69 z"/>
<path transform="translate(0,0)" fill="#6C707E" d="M 1031.44 1362.63 L 1032.67 1364.35 C 1022.91 1370.33 957.385 1413.51 951.097 1413.46 C 977.683 1396.28 1005.18 1380.12 1031.44 1362.63 z"/>
<path transform="translate(0,0)" fill="#6C707E" d="M 975.69 1280.78 C 982.474 1287.54 989.378 1298.91 994.805 1307.15 C 981.95 1317.73 947.241 1336.75 930.765 1346.84 L 756.904 1452.06 C 742.831 1460.57 728.999 1469.19 715.084 1477.94 C 702.573 1485.81 687.284 1493.1 675.794 1502.16 C 677.902 1516.32 679.62 1520.55 666.862 1528.96 C 660.382 1529.08 653.901 1529.13 647.42 1529.1 C 631.717 1545.18 633.646 1558.95 633.392 1580.01 C 633.355 1583.14 633.764 1590.21 633.081 1592.77 C 624.221 1590.4 618.343 1588.09 609.742 1584.69 C 593.421 1560.64 599.389 1518.66 621.661 1500.94 C 637.824 1488.07 661.169 1474.98 679.225 1463.75 L 785.035 1397.81 L 905.956 1322.67 C 925.682 1310.41 955.816 1290.54 975.69 1280.78 z"/>
<path transform="translate(0,0)" fill="#6C707E" d="M 1006.95 1265.37 C 1012.48 1252.74 1039.13 1238.86 1051.97 1231.52 C 1062.81 1248.71 1074.09 1265.61 1085.8 1282.22 C 1091.29 1290.16 1102.46 1305.49 1106.44 1313.4 C 1115.49 1326.21 1124.65 1338.98 1132.83 1352.36 C 1126.74 1356.41 1121.06 1360.22 1114.71 1363.88 C 1104.12 1369.94 1092.31 1377.72 1081.46 1384.16 C 1074.49 1377.19 1060.31 1355.16 1054.01 1345.79 C 1042.99 1331.12 1029.07 1309.27 1018.9 1293.76 C 1010.41 1282.45 1006.48 1279.33 1006.95 1265.37 z"/>
<path transform="translate(0,0)" fill="#6C707E" d="M 1106.44 1313.4 C 1115.49 1326.21 1124.65 1338.98 1132.83 1352.36 C 1126.74 1356.41 1121.06 1360.22 1114.71 1363.88 C 1104.12 1369.94 1092.31 1377.72 1081.46 1384.16 C 1074.49 1377.19 1060.31 1355.16 1054.01 1345.79 L 1057.76 1346.21 C 1059.67 1343.91 1063.49 1341.94 1066.19 1340.32 L 1077.8 1332.63 C 1081.4 1330.19 1083.94 1328 1088.15 1327.08 L 1087.74 1325.7 C 1093.24 1323.1 1101.19 1317.11 1106.44 1313.4 z"/>
<path transform="translate(0,0)" fill="#6C707E" d="M 1106.44 1313.4 C 1115.49 1326.21 1124.65 1338.98 1132.83 1352.36 C 1126.74 1356.41 1121.06 1360.22 1114.71 1363.88 C 1105.74 1352.72 1096.49 1338.95 1088.15 1327.08 L 1087.74 1325.7 C 1093.24 1323.1 1101.19 1317.11 1106.44 1313.4 z"/>
<path transform="translate(0,0)" fill="#6C707E" d="M 1077.8 1332.63 C 1081.4 1330.19 1083.94 1328 1088.15 1327.08 C 1085.81 1331.41 1076.23 1336.7 1071.75 1339.39 L 1066.19 1340.32 L 1077.8 1332.63 z"/>
<path transform="translate(0,0)" fill="#6C707E" d="M 1066.19 1340.32 L 1071.75 1339.39 C 1068.53 1341.59 1061.54 1346.82 1057.76 1346.21 C 1059.67 1343.91 1063.49 1341.94 1066.19 1340.32 z"/>
<path transform="translate(0,0)" fill="#6C707E" d="M 1050.85 1273.16 C 1052.82 1282.88 1072.85 1301.53 1076.62 1309.93 C 1080.96 1315.05 1084.08 1320.08 1087.74 1325.7 L 1088.15 1327.08 C 1083.94 1328 1081.4 1330.19 1077.8 1332.63 L 1066.19 1340.32 C 1063.49 1341.94 1059.67 1343.91 1057.76 1346.21 L 1054.01 1345.79 C 1042.99 1331.12 1029.07 1309.27 1018.9 1293.76 C 1028.07 1290.57 1041.56 1281.06 1049.21 1275.21 L 1050.85 1273.16 z"/>
<path transform="translate(0,0)" fill="#6C707E" d="M 1076.62 1309.93 C 1080.96 1315.05 1084.08 1320.08 1087.74 1325.7 L 1088.15 1327.08 C 1083.94 1328 1081.4 1330.19 1077.8 1332.63 C 1077.51 1325.08 1076.88 1317.55 1076.62 1309.93 z"/>
<path transform="translate(0,0)" fill="#6C707E" d="M 1035.35 1258.5 C 1040.67 1262.38 1045.26 1269.7 1049.21 1275.21 C 1041.56 1281.06 1028.07 1290.57 1018.9 1293.76 C 1010.41 1282.45 1006.48 1279.33 1006.95 1265.37 C 1011.14 1265.2 1029.59 1259.72 1035.35 1258.5 z"/>
<path transform="translate(0,0)" fill="#6C707E" d="M 1035.35 1258.5 C 1036.65 1255.41 1035.57 1256.48 1038.08 1254.73 C 1045.34 1256.52 1048.9 1266.54 1050.85 1273.16 L 1049.21 1275.21 C 1045.26 1269.7 1040.67 1262.38 1035.35 1258.5 z"/>
<path transform="translate(0,0)" fill="#6C707E" d="M 651.688 330.407 C 680.71 325.692 719.825 334.516 745.53 348.935 C 796.361 377.449 792.927 396.141 792.989 448.492 L 793.028 533.959 L 792.961 891.489 L 793.021 1124.87 L 793.073 1200.5 C 793.072 1205.71 792.675 1213.12 793.061 1218.05 C 797.439 1273.91 765.737 1327.37 709.702 1341.16 C 700.641 1343.39 690.321 1345.29 680.628 1347.52 C 675.101 1353.26 669.685 1358.81 663.857 1364.25 C 634.035 1392.09 586.481 1399.34 549.327 1383.47 C 525.845 1373.35 506.789 1355.12 495.645 1332.1 C 491.553 1323.49 488.21 1313.09 484.61 1303.98 C 460.139 1294.6 451.625 1298.25 423.896 1283.1 C 381.742 1258.99 366.792 1226.97 361.84 1180.37 C 354.616 1178.62 347.652 1176.88 340.527 1174.79 C 277.435 1156.3 248.091 1097.51 267.573 1035.89 C 263.408 1032.95 259.322 1029.83 255.192 1026.88 C 204.14 990.434 191.089 918.552 225.183 866.128 C 231.079 857.061 237.4 850.397 245.075 842.558 C 206.465 782.567 215.564 699.586 274.485 656.486 C 263.77 600.832 281.68 553.292 330.034 521.577 C 348.201 509.662 362.405 506.066 383.006 500.584 C 383.761 495.502 384.575 490.429 385.448 485.366 C 391.645 452.433 410.528 423.251 438.031 404.106 C 470.62 381.576 505.973 377.271 544.134 384.107 C 576.617 351.114 605.456 335.009 651.688 330.407 z"/>
<path transform="translate(0,0)" fill="#6C707E" d="M 658.533 363.412 C 691.571 359.524 743.493 376.023 760.732 406.274 C 761.29 430.629 760.746 457.857 760.698 482.425 L 760.515 593.344 C 749.087 599.058 733.218 605.152 721.343 609.995 C 702.007 618.029 682.557 625.79 663.001 633.273 C 632.821 613.947 601.73 607.437 580.229 646.638 C 576.975 652.569 574.809 660.889 572.582 667.417 C 562.967 672.918 531.061 683.438 519.259 687.495 C 495.046 695.819 469.382 705.754 445.101 713.388 C 439.266 707.681 437.391 705.305 432.801 698.725 C 436.585 689.398 482.696 615.291 489.825 607.342 C 520.691 603.801 535.004 598.052 546.064 566.34 C 559.15 559.086 619.184 538.159 635.973 532.569 C 655.699 543.343 675.793 548.988 696.302 534.864 C 706.713 527.577 713.71 516.368 715.685 503.814 C 721.319 468.247 686.271 439.457 652.788 454.534 C 629.371 465.079 625.507 482.832 624.028 506.211 C 603.069 517.23 565.217 530.343 542.277 538.023 L 535.794 530.746 C 529.735 522.717 519.164 515.783 509.483 513.27 C 496.988 510.117 483.751 512.076 472.705 518.712 C 454.799 529.381 444.413 549.863 449.737 570.452 C 452.314 580.419 456.999 587.439 462.632 595.864 C 459.792 601.298 456.557 607.117 453.111 612.197 C 437.354 635.425 423.823 662.797 406.858 684.925 C 400.916 684.869 395.061 684.792 389.058 685.498 C 358.573 688.902 334.191 717.513 339.481 748.575 C 341.445 760.102 346.766 772.261 355.427 780.203 C 360.634 784.978 367.546 789.712 373.309 793.905 C 370.967 804.302 366.688 820.659 361.023 829.586 C 345.978 836.413 331.984 842.885 317.272 850.363 C 304.349 845.373 295.422 841.788 281.915 838.466 C 277.289 831.546 272.971 824.424 268.974 817.123 C 247.25 776.572 251.442 729.572 282.182 694.079 C 289.931 685.133 305.833 678.092 309.617 666.43 C 312.083 658.832 306.685 647.023 305.555 638.246 C 303.907 625.877 304.979 613.297 308.697 601.385 C 318.983 568.102 346.413 544.465 380.062 536.269 C 387.483 534.462 406.196 532.736 411.088 529.065 C 423.97 519.398 415.789 498.722 421.649 480.202 C 429.147 456.25 446.016 436.35 468.416 425.03 C 498.819 409.412 520.839 413.049 551.184 422.911 C 563.844 417.47 564.486 411.827 574.079 402.387 C 599.25 377.615 624.029 366.56 658.533 363.412 z"/>
<path transform="translate(0,0)" fill="#6C707E" d="M 685.969 1015.35 C 688.56 1019.98 687.552 1106.8 686.755 1117.74 C 680.858 1127.87 671.309 1131.06 663.881 1140.35 C 657.06 1148.88 654.114 1162.49 655.47 1173.12 C 657.003 1184.63 663.3 1194.96 672.825 1201.6 C 683.225 1208.92 696.119 1211.77 708.636 1209.53 C 720.846 1207.28 731.603 1200.13 738.404 1189.74 C 748.516 1174.07 745.656 1161.23 742.349 1144.55 C 749.486 1140.65 753.193 1140.06 760.959 1138.48 C 761.539 1168.3 760.914 1198.29 761.234 1228.13 C 761.316 1235.77 761.057 1243.48 759.662 1251.01 C 757.753 1260.77 754.114 1270.11 748.916 1278.59 C 723.239 1320.59 657.854 1328.92 622.582 1294.36 C 614.278 1286.23 603.354 1267.05 589.576 1271.37 C 586.081 1272.48 583.247 1275.06 581.824 1278.44 C 577.351 1289.02 590.52 1301.55 596.845 1308.71 C 609.195 1322.7 624.732 1332.31 641.913 1339.25 C 598.088 1378.09 530.713 1357.43 519.15 1298.23 C 518.943 1295.51 518.716 1290.58 518.183 1287.98 C 513.438 1264.86 493.722 1271.84 477.062 1268.64 C 460.813 1265.52 445.811 1260.26 432.766 1250.56 C 409.154 1233 397.696 1212.98 393.044 1184.47 C 405.244 1183.7 424.449 1185.4 436.802 1186.36 C 444.982 1193.91 466.804 1225.06 474.478 1225.12 C 515.42 1225.44 469.251 1180.99 463.374 1171.24 C 469.454 1161.5 482.231 1149.12 489.704 1139.34 C 497.706 1128.88 505.479 1115.64 513.94 1106.18 C 547.703 1109.05 555.254 1118.34 578.277 1138.77 C 579.589 1146.05 582.83 1169.24 580.34 1175.53 C 575.258 1188.35 567.051 1196.34 575.443 1212.35 C 578.985 1219.04 585.163 1223.94 592.483 1225.88 C 599.849 1227.86 607.706 1226.76 614.244 1222.83 C 620.63 1218.89 625.089 1212.47 626.548 1205.11 C 629.962 1187.77 618.894 1181.14 610.611 1170.2 C 607.185 1165.67 603.348 1141.8 605.325 1135.78 C 606.824 1130.2 612.412 1121.37 612.206 1115.68 C 611.512 1096.57 610.238 1082.08 615.61 1062.93 C 623.428 1055.47 639.33 1045.96 648.859 1039.57 C 660.486 1031.78 674.02 1022.23 685.969 1015.35 z"/>
<path transform="translate(0,0)" fill="#6C707E" d="M 758.423 624.963 L 759.896 626.01 C 761.27 636.461 760.807 653.265 760.787 664.275 L 760.688 727.445 L 761.005 934.059 C 752.276 941.581 720.775 960.435 709.728 967.377 L 709.35 924.5 L 709.419 832.595 C 709.505 816.302 712 772.651 704.761 760.025 C 694.195 741.595 674.157 718.707 662.471 698.736 C 672.518 683.351 674.24 678.13 673.707 659.599 C 693.85 649.055 735.983 633.706 758.423 624.963 z"/>
<path transform="translate(0,0)" fill="#6C707E" d="M 529.002 880.679 C 537.41 882.609 543.472 890.324 551.013 894.116 C 559.279 898.272 569.752 897.281 577.54 902.548 C 589.364 910.546 649.133 985.323 659.776 1000.16 C 642.595 1013.21 621.053 1024.88 603.017 1037.1 C 588.827 1046.71 588.578 1055.23 585.708 1071.25 C 582.577 1098.67 552.958 1089.64 535.382 1083.37 C 528.216 1080.82 521.798 1078.65 515.356 1074.54 C 509.735 1064.36 505.569 1049.82 502.684 1038.71 C 520.533 1025.24 536.484 1011.82 533.117 986.16 C 530.615 967.091 515.624 956.322 501.162 946.084 C 500.336 930.172 500.329 914.227 501.141 898.314 C 508.602 891.712 520.108 885.663 529.002 880.679 z"/>
<path transform="translate(0,0)" fill="#6C707E" d="M 433.203 783.866 C 436.959 785.362 443.274 788.986 446.555 791.482 C 467.691 807.561 492.75 819.963 512.21 837.863 C 514.534 840 516.865 850.566 517.719 853.971 C 504.922 864.726 488.655 871.064 476.003 881.958 C 472.128 885.573 471.994 891.91 472.008 896.736 C 472.056 913.404 472.2 930.051 471.756 946.705 C 466.169 950.087 460.665 953.604 455.25 957.254 C 445.136 967.283 439.797 977.459 423.22 975.384 C 412.243 974.01 401.26 972.43 390.276 971.183 C 388.082 950.458 388.827 923.56 388.048 902.235 C 387.457 886.077 386.781 861.349 388.243 845.74 C 389.173 835.819 399.887 806.044 404.993 797.437 C 416.714 792.952 422.453 790.344 433.203 783.866 z"/>
<path transform="translate(0,0)" fill="#6C707E" d="M 630.431 711.162 C 642.228 716.071 672.267 762.23 677.903 775.448 C 679.851 780.015 679.053 824.627 679.048 832.85 C 679.408 880.536 679.051 928.226 677.978 975.902 C 670.389 967.907 662.367 957.612 655.289 948.978 C 644.344 936.1 611.304 898.112 604.451 885.056 C 608.303 876.604 611.089 869.942 612.653 860.73 C 616.917 835.633 597.49 824.44 585.153 806.778 C 590.925 783.829 607.714 742.659 618.22 720.42 C 620.888 714.771 624.593 712.55 630.431 711.162 z"/>
<path transform="translate(0,0)" fill="#6C707E" d="M 357.884 862.183 C 361.759 867.035 361.45 961.195 361.089 973.855 C 344.075 985.775 318.17 1001.34 300.027 1012.3 C 281.365 1006.79 268.172 996.445 256.104 981.59 C 228.195 943.021 236.015 892.462 272.9 862.932 C 287.915 868.442 302.86 874.141 317.731 880.027 C 332.565 874.38 341.017 867.227 357.884 862.183 z"/>
<path transform="translate(0,0)" fill="#6C707E" d="M 390.592 1000.5 C 404.239 1000.34 424.576 1000.01 437.369 1003.66 C 449.008 1020.15 447.581 1023.67 465.627 1035.61 C 475.331 1042.03 486.688 1076.7 488.709 1088.45 C 490.369 1098.1 468.212 1120.88 461.299 1128.91 C 454.86 1136.43 442.075 1152.07 434.913 1157.21 C 420.942 1157.44 406.971 1156.82 393.075 1155.36 C 390.813 1123.71 391.969 1087.21 390.909 1054.99 C 390.607 1045.81 389.4 1008.17 390.592 1000.5 z"/>
<path transform="translate(0,0)" fill="#6C707E" d="M 579.4 696.013 C 586.551 695.254 589.772 701.828 593.535 707.039 C 583.329 733.457 572.792 760.026 563.014 786.636 C 556.539 804.259 544.362 807.022 526.957 814.034 C 516.255 809.368 498.871 796.867 488.594 789.883 C 476.119 781.594 460.334 771.679 449.425 761.826 L 453.512 741.923 C 465.718 734.376 492.433 725.962 506.847 720.946 C 530.968 712.451 555.153 704.139 579.4 696.013 z"/>
<path transform="translate(0,0)" fill="#6C707E" d="M 360.762 1007.99 C 360.863 1008.09 360.983 1008.17 361.066 1008.28 C 364.998 1013.56 364.842 1127.96 364.898 1146.42 C 345.329 1142.7 336.28 1139.26 320.215 1127.68 C 299.59 1108.94 290.096 1082.11 296.871 1054.48 C 299.471 1043.88 309.223 1037.92 318 1032.73 C 332.157 1024.37 346.298 1015.88 360.762 1007.99 z"/>
<path transform="translate(0,0)" fill="#6C707E" d="M 758.965 969.775 L 760.885 970.5 C 762.491 1010.65 762.359 1066.83 761.061 1107.47 C 749.907 1114.61 727.378 1121.92 714.015 1120.66 C 708.133 1114.8 708.668 1107.18 708.897 1099.13 C 709.804 1067.27 707.296 1033.17 709.983 1001.5 C 726.522 989.636 741.66 980.367 758.965 969.775 z"/>
<path transform="translate(0,0)" fill="#6C707E" d="M 389.703 713.551 C 404.801 710.046 419.902 719.362 423.544 734.428 C 427.186 749.493 418.008 764.679 402.976 768.457 C 387.75 772.285 372.324 762.962 368.635 747.701 C 364.946 732.441 374.41 717.101 389.703 713.551 z"/>
<path transform="translate(0,0)" fill="#6C707E" d="M 493.617 538.488 C 501.387 536.983 509.367 539.77 514.51 545.786 C 519.653 551.802 521.166 560.118 518.471 567.56 C 515.776 575.002 509.289 580.421 501.486 581.748 C 489.612 583.768 478.323 575.859 476.167 564.008 C 474.012 552.158 481.792 540.779 493.617 538.488 z"/>
<path transform="translate(0,0)" fill="#6C707E" d="M 619.339 645.375 C 631.088 642.265 643.129 649.282 646.216 661.037 C 649.302 672.791 642.261 684.819 630.5 687.882 C 618.773 690.936 606.786 683.919 603.708 672.198 C 600.63 660.476 607.624 648.476 619.339 645.375 z"/>
<path transform="translate(0,0)" fill="#6C707E" d="M 560.55 830.562 C 572.115 827.612 583.888 834.57 586.881 846.124 C 589.874 857.679 582.959 869.478 571.415 872.513 C 559.812 875.564 547.938 868.605 544.93 856.99 C 541.921 845.375 548.924 833.527 560.55 830.562 z"/>
<path transform="translate(0,0)" fill="#6C707E" d="M 668.849 476.104 C 676.553 474.973 684.27 478.081 689.039 484.237 C 693.808 490.393 694.89 498.642 691.87 505.819 C 688.849 512.997 682.195 517.99 674.459 518.884 C 662.751 520.236 652.124 511.942 650.591 500.256 C 649.059 488.57 657.188 477.817 668.849 476.104 z"/>
<path transform="translate(0,0)" fill="#6C707E" d="M 480.52 972.612 C 492.06 969.519 503.915 976.398 506.956 987.952 C 509.996 999.506 503.064 1011.33 491.496 1014.32 C 480.003 1017.29 468.271 1010.41 465.249 998.929 C 462.228 987.448 469.054 975.685 480.52 972.612 z"/>
<path transform="translate(0,0)" fill="#6C707E" d="M 694.678 1146.56 C 701.614 1144.67 709.032 1146.66 714.08 1151.78 C 719.129 1156.9 721.021 1164.35 719.03 1171.25 C 717.038 1178.16 711.473 1183.46 704.474 1185.1 C 693.918 1187.59 683.319 1181.15 680.648 1170.64 C 677.976 1160.13 684.218 1149.42 694.678 1146.56 z"/>
<path transform="translate(0,0)" fill="#6C707E" d="M 817.21 827.551 L 817.113 537.335 L 817.118 449.293 C 817.134 423.818 812.978 385.522 832.939 366.561 C 860.064 340.793 900.837 329.381 937.609 329.701 C 990.132 330.159 1022.34 349.605 1059.36 383.499 C 1079.57 380.733 1096.5 379.023 1116.68 383.713 C 1178.26 398.019 1213.28 438.986 1221.98 500.37 C 1276.19 517.746 1311.91 543.396 1328.48 600.46 C 1317.85 603.094 1305.71 605.041 1295.73 607.711 C 1283.82 577.991 1268.94 554.828 1238.31 541.563 C 1229.99 538.011 1221.25 535.518 1212.31 534.144 C 1205.51 533.127 1192.69 534.146 1189.82 526.487 C 1186.18 516.74 1187.17 505.354 1185.74 495.146 C 1181.05 461.811 1160.6 436.404 1130.34 422.557 C 1113.66 415.034 1095.1 412.681 1077.07 415.8 C 1052.33 420.072 1049.79 424.252 1030.99 403.553 C 989.666 358.04 913.78 349.63 863.426 385.026 C 857.454 389.192 852.92 393.792 848.98 399.974 C 849.76 432.62 849.927 465.278 849.48 497.931 C 849.397 519.476 849.858 542.556 849.301 563.921 C 867.47 563.85 889.479 567.142 905.375 564.252 C 911.77 551.375 916.624 537.789 919.837 523.775 C 910.354 510.451 901.155 498.444 903.857 480.773 C 905.679 469.217 912.232 458.942 921.941 452.416 C 954.213 430.412 996.433 459.886 986.564 497.716 C 981.462 517.272 965.358 523.873 948.454 530.416 C 941.505 541.588 938.928 551.463 934.972 563.895 C 955.915 565.503 976.73 565.713 997.663 563.903 C 1015.22 562.385 1025.14 557.044 1038.25 545.722 C 1042.21 542.261 1046.05 538.671 1049.77 534.959 C 1046.08 526.117 1042.6 518.242 1042.35 508.432 C 1041.84 488.908 1052.43 471.442 1070.86 464.208 C 1083.57 459.217 1097.77 459.628 1110.17 465.346 C 1121.56 470.612 1130.27 480.346 1134.25 492.25 C 1140.11 509.665 1135.18 520.831 1128.97 536.656 C 1133.95 547.988 1146.92 563.564 1155.7 572.266 C 1174.46 571.671 1186.43 570.995 1203.22 584.541 C 1213.92 593.174 1224.85 622.753 1213.84 634.383 C 1206.81 641.807 1185.15 648.655 1176.15 654.944 C 1167.58 659.851 1163.33 662.551 1155.55 667.874 C 1149.42 661.389 1141.13 656.895 1134.47 650.315 C 1115.23 631.297 1122.17 611.522 1130.29 589.559 C 1110.84 556.075 1093.21 536.021 1057.59 566.16 C 1048.72 573.66 1043.76 576.699 1037.06 586.923 C 1035.52 624.809 1039.53 665.891 1038.39 704.206 C 1038.29 707.562 1039.3 713.093 1040.46 716.225 C 1048.36 723.628 1067.06 726.365 1078.24 728.829 C 1071.61 736.058 1063.22 744.725 1057.1 752.185 C 1047.84 750.29 1027.9 745.805 1020.63 744.909 C 1010.85 744.039 969.164 740.694 963.449 746.021 C 947.547 760.839 934.516 778.438 909.06 774.382 C 870.097 768.175 853.74 715.961 886.857 691.648 C 899.71 682.212 903.926 679.616 903.38 661.93 C 903.39 638.413 903.098 614.792 903.009 591.226 C 885.122 590.938 867.232 590.892 849.344 591.086 L 847.796 842.903 C 848.036 854.2 847.349 865.432 847.598 876.357 C 837.454 876.979 827.691 877.485 817.593 878.8 C 817.52 882.747 817.566 887.389 817.236 891.259 C 816.421 872.23 816.942 846.766 817.21 827.551 z"/>
<path transform="translate(0,0)" fill="#6C707E" d="M 817.21 827.551 C 818.144 841.039 817.684 855.491 817.736 869.107 C 828.084 865.682 836.111 863.05 846.931 861.49 C 847.16 855.863 847.248 848.353 847.796 842.903 C 848.036 854.2 847.349 865.432 847.598 876.357 C 837.454 876.979 827.691 877.485 817.593 878.8 C 817.52 882.747 817.566 887.389 817.236 891.259 C 816.421 872.23 816.942 846.766 817.21 827.551 z"/>
<path transform="translate(0,0)" fill="#6C707E" d="M 965.79 590.552 C 971.901 590.228 978.149 589.867 984.262 590.087 C 991.233 590.339 1000.48 592.115 1005.22 597.802 C 1012.07 606.018 1009.81 701.383 1008.88 716.81 C 996.988 717.106 986.602 716.438 974.759 715.75 L 963.493 714.68 C 952.92 693.458 950.654 692.183 930.465 680.61 C 927.765 656.519 929.292 616.581 929.73 591.083 C 941.752 591.087 953.773 590.91 965.79 590.552 z"/>
<path transform="translate(0,0)" fill="#6C707E" d="M 1169.05 597.768 C 1181.11 597.006 1191.48 606.21 1192.16 618.277 C 1192.84 630.343 1183.57 640.655 1171.5 641.253 C 1159.54 641.846 1149.35 632.679 1148.68 620.728 C 1148 608.778 1157.1 598.523 1169.05 597.768 z"/>
<path transform="translate(0,0)" fill="#6C707E" d="M 912.303 706.554 C 924.04 704.34 935.359 712.031 937.622 723.758 C 939.885 735.486 932.241 746.837 920.523 749.148 C 908.736 751.473 897.305 743.774 895.028 731.978 C 892.752 720.181 900.498 708.782 912.303 706.554 z"/>
<path transform="translate(0,0)" fill="#6C707E" d="M 1085.37 486.414 C 1096.99 483.948 1108.42 491.334 1110.95 502.941 C 1113.48 514.549 1106.16 526.019 1094.56 528.609 C 1082.88 531.219 1071.3 523.827 1068.76 512.131 C 1066.21 500.435 1073.66 488.898 1085.37 486.414 z"/>
<path transform="translate(0,0)" fill="#6C707E" d="M 944.351 468.745 C 954.131 467.78 962.877 474.84 963.996 484.603 C 965.115 494.367 958.193 503.223 948.448 504.495 C 942.007 505.336 935.613 502.639 931.718 497.44 C 927.823 492.241 927.033 485.347 929.651 479.402 C 932.268 473.457 937.887 469.384 944.351 468.745 z"/>
<path transform="translate(0,0)" fill="#6C707E" d="M 1109.99 1642.97 C 1105.12 1641.06 1097.94 1639.29 1095.55 1634.17 C 1094.34 1631.58 1094.13 1629.6 1095.2 1626.92 C 1097.61 1620.82 1108.04 1616.68 1113.93 1614.85 C 1127.16 1610.74 1142.45 1611.3 1156.22 1609.39 C 1195.09 1603.97 1233.63 1599.62 1272.82 1597.3 C 1361.5 1592.03 1629.66 1588.28 1700.86 1626.43 C 1704.68 1628.47 1707.66 1630.22 1709.35 1634.36 C 1708.53 1638.4 1706.06 1640.35 1702.73 1642.63 C 1669.78 1665.18 1558.83 1671.2 1516.59 1673.79 C 1434.64 1678.81 1352.99 1675.55 1271.03 1675.32 L 966.805 1676.01 C 893.048 1676.37 819.291 1675.75 745.551 1674.15 C 722.216 1673.72 654.704 1680.29 641.833 1659.41 C 678.62 1668.68 706.121 1662.03 737.967 1641.77 C 747.072 1643.33 768.308 1642.84 778.286 1642.85 L 850.355 1642.91 L 1109.99 1642.97 z"/>
<path transform="translate(0,0)" fill="#6C707E" d="M 847.598 876.357 C 855.596 876.356 863.594 876.429 871.591 876.579 L 875.938 876.891 C 877.162 882.258 880.1 899.676 881.51 902.736 L 874.86 902.92 L 848.184 904.029 L 847.872 1009.62 C 847.847 1030.22 847.302 1053.47 848.225 1073.9 C 860.354 1077.59 875.48 1080.47 888.216 1080.11 C 893.734 1075.59 898.992 1070.67 905.723 1068.26 C 931.409 1059.07 949.993 1072.14 954.858 1097.15 L 955.072 1098.53 C 955.952 1106.64 957.549 1114.91 960.508 1122.54 L 969.428 1128.05 C 968.32 1153.88 963.822 1166.09 974.77 1191.28 C 979.466 1202.09 977.098 1209.98 968.327 1216.63 C 947.282 1235.13 921.354 1247.42 899.795 1264.85 C 885.359 1276.52 871.253 1284.75 856.461 1295.24 C 850.67 1291.56 844.529 1287.38 838.656 1284 C 814.761 1265.89 817.074 1227.47 817.113 1201.51 L 817.116 1134.62 L 817.236 891.259 C 817.566 887.389 817.52 882.747 817.593 878.8 C 827.691 877.485 837.454 876.979 847.598 876.357 z"/>
<path transform="translate(0,0)" fill="#6C707E" d="M 954.858 1097.15 L 955.072 1098.53 C 955.952 1106.64 957.549 1114.91 960.508 1122.54 L 969.428 1128.05 C 968.32 1153.88 963.822 1166.09 974.77 1191.28 C 979.466 1202.09 977.098 1209.98 968.327 1216.63 C 947.282 1235.13 921.354 1247.42 899.795 1264.85 C 885.359 1276.52 871.253 1284.75 856.461 1295.24 C 850.67 1291.56 844.529 1287.38 838.656 1284 C 846.808 1278.12 854.481 1273.81 863.299 1269.06 C 843.946 1245.51 846.593 1235.78 846.948 1206.53 C 847.367 1172.03 846.645 1137.39 847.637 1102.88 L 849.089 1102.83 C 883.639 1101.99 882.606 1109.61 905.862 1131.59 C 906.178 1142.02 907.6 1161.33 904.058 1170.47 C 900.769 1178.97 891.345 1185.15 890.251 1196.5 C 889.512 1204.1 891.958 1211.66 897.003 1217.38 C 902.099 1223.12 909.329 1226.52 917.003 1226.78 C 925.056 1227.13 932.212 1224.15 937.615 1218.91 C 957.369 1199.78 940.273 1185.64 932.99 1167.45 C 930.919 1162.28 932.055 1140.49 932.246 1133.47 C 944.378 1118.75 950.916 1121.76 954.858 1097.15 z"/>
<path transform="translate(0,0)" fill="#6C707E" d="M 871.591 876.579 L 875.938 876.891 C 877.162 882.258 880.1 899.676 881.51 902.736 L 874.86 902.92 C 875.222 894.312 873.423 884.976 871.591 876.579 z"/>
<path transform="translate(0,0)" fill="#6C707E" d="M 896.786 875.254 C 905.231 855.735 907.981 839.493 932.367 830.332 C 944.499 825.73 957.996 826.356 969.649 832.063 C 980.474 837.275 986.456 844.325 991.595 854.846 C 983.065 875.699 977.705 893.66 970.101 913.063 C 939.718 932.182 930.215 917.385 903.375 905.201 C 900.259 903.787 885.76 903.036 881.51 902.736 C 880.1 899.676 877.162 882.258 875.938 876.891 C 884.045 876.67 888.811 876.422 896.786 875.254 z"/>
<path transform="translate(0,0)" fill="#6C707E" d="M 943.441 853.561 C 955.084 851.493 966.224 859.175 968.428 870.793 C 970.633 882.41 963.082 893.64 951.491 895.98 C 943.871 897.519 936.012 894.843 930.916 888.973 C 925.819 883.104 924.271 874.947 926.863 867.619 C 929.455 860.29 935.787 854.921 943.441 853.561 z"/>
</svg>
